<?xml version="1.0" encoding="utf-8" standalone="no"?>
<!DOCTYPE svg PUBLIC "-//W3C//DTD SVG 1.1//EN"
  "http://www.w3.org/Graphics/SVG/1.1/DTD/svg11.dtd">
<svg xmlns:xlink="http://www.w3.org/1999/xlink" width="427.43952pt" height="218.63952pt" viewBox="0 0 427.43952 218.63952" xmlns="http://www.w3.org/2000/svg" version="1.1">
 <metadata>
  <rdf:RDF xmlns:dc="http://purl.org/dc/elements/1.1/" xmlns:cc="http://creativecommons.org/ns#" xmlns:rdf="http://www.w3.org/1999/02/22-rdf-syntax-ns#">
   <cc:Work>
    <dc:type rdf:resource="http://purl.org/dc/dcmitype/StillImage"/>
    <dc:date>2026-09-09T23:59:39.071058</dc:date>
    <dc:format>image/svg+xml</dc:format>
    <dc:creator>
     <cc:Agent>
      <dc:title>Matplotlib v3.11.1, https://matplotlib.org/</dc:title>
     </cc:Agent>
    </dc:creator>
   </cc:Work>
  </rdf:RDF>
 </metadata>
 <defs>
  <style type="text/css">*{stroke-linejoin: round; stroke-linecap: butt}</style>
 </defs>
 <g id="figure_1">
  <g id="patch_1">
   <path d="M 0 218.63952 
L 427.43952 218.63952 
L 427.43952 0 
L 0 0 
z
" style="fill: #ffffff"/>
  </g>
  <g id="axes_1">
   <g id="patch_2">
    <path d="M 46.211123 180.658182 
L 210.71952 180.658182 
L 210.71952 19.413906 
L 46.211123 19.413906 
z
" style="fill: #ffffff"/>
   </g>
   <g id="matplotlib.axis_1">
    <g id="xtick_1">
     <g id="line2d_1">
      <path d="M 53.688777 180.658182 
L 53.688777 19.413906 
" clip-path="url(#p2be52161f1)" style="fill: none; stroke-dasharray: 2.22,0.96; stroke-dashoffset: 0; stroke: #b0b0b0; stroke-opacity: 0.3; stroke-width: 0.6"/>
     </g>
     <g id="line2d_2">
      <defs>
       <path id="mf79667b9f4" d="M 0 0 
L 0 3.5 
" style="stroke: #000000; stroke-width: 0.8"/>
      </defs>
      <g>
       <use xlink:href="#mf79667b9f4" x="53.688777" y="180.658182" style="stroke: #000000; stroke-width: 0.8"/>
      </g>
     </g>
     <g id="text_1">
      <!-- -1.0 -->
      <g transform="translate(43.995965 196.184305) scale(0.105 -0.105)">
       <defs>
        <path id="MicrosoftYaHei-13" d="M 2328 1681 
L 488 1681 
L 488 2153 
L 2328 2153 
L 2328 1681 
z
" transform="scale(0.015625)"/>
        <path id="MicrosoftYaHei-17" d="M 1781 0 
L 1781 4141 
Q 1638 3997 1295 3819 
Q 953 3641 663 3569 
L 663 4169 
Q 1047 4275 1484 4508 
Q 1922 4741 2156 4947 
L 2388 4947 
L 2388 0 
L 1781 0 
z
" transform="scale(0.015625)"/>
        <path id="MicrosoftYaHei-14" d="M 372 322 
Q 372 491 487 606 
Q 603 722 775 722 
Q 950 722 1065 605 
Q 1181 488 1181 322 
Q 1181 159 1065 42 
Q 950 -75 772 -75 
Q 600 -75 486 42 
Q 372 159 372 322 
z
" transform="scale(0.015625)"/>
        <path id="MicrosoftYaHei-16" d="M 284 2325 
Q 284 3606 709 4264 
Q 1134 4922 1941 4922 
Q 3478 4922 3478 2441 
Q 3478 1216 3045 567 
Q 2613 -81 1831 -81 
Q 1094 -81 689 534 
Q 284 1150 284 2325 
z
M 909 2353 
Q 909 425 1888 425 
Q 2850 425 2850 2384 
Q 2850 4413 1906 4413 
Q 909 4413 909 2353 
z
" transform="scale(0.015625)"/>
       </defs>
       <use xlink:href="#MicrosoftYaHei-13"/>
       <use xlink:href="#MicrosoftYaHei-17" transform="translate(43.265625 0)"/>
       <use xlink:href="#MicrosoftYaHei-14" transform="translate(101.90625 0)"/>
       <use xlink:href="#MicrosoftYaHei-16" transform="translate(125.984375 0)"/>
      </g>
     </g>
    </g>
    <g id="xtick_2">
     <g id="line2d_3">
      <path d="M 91.077049 180.658182 
L 91.077049 19.413906 
" clip-path="url(#p2be52161f1)" style="fill: none; stroke-dasharray: 2.22,0.96; stroke-dashoffset: 0; stroke: #b0b0b0; stroke-opacity: 0.3; stroke-width: 0.6"/>
     </g>
     <g id="line2d_4">
      <g>
       <use xlink:href="#mf79667b9f4" x="91.077049" y="180.658182" style="stroke: #000000; stroke-width: 0.8"/>
      </g>
     </g>
     <g id="text_2">
      <!-- -0.5 -->
      <g transform="translate(81.384237 196.184305) scale(0.105 -0.105)">
       <defs>
        <path id="MicrosoftYaHei-1b" d="M 3294 1494 
Q 3294 784 2823 350 
Q 2353 -84 1559 -84 
Q 878 -84 544 119 
L 544 744 
Q 1034 425 1544 425 
Q 2050 425 2361 704 
Q 2672 984 2672 1447 
Q 2672 1909 2348 2167 
Q 2025 2425 1434 2425 
Q 978 2425 613 2384 
L 791 4841 
L 3053 4841 
L 3053 4303 
L 1306 4303 
L 1206 2931 
L 1647 2950 
Q 2416 2950 2855 2567 
Q 3294 2184 3294 1494 
z
" transform="scale(0.015625)"/>
       </defs>
       <use xlink:href="#MicrosoftYaHei-13"/>
       <use xlink:href="#MicrosoftYaHei-16" transform="translate(43.265625 0)"/>
       <use xlink:href="#MicrosoftYaHei-14" transform="translate(101.90625 0)"/>
       <use xlink:href="#MicrosoftYaHei-1b" transform="translate(125.984375 0)"/>
      </g>
     </g>
    </g>
    <g id="xtick_3">
     <g id="line2d_5">
      <path d="M 128.465322 180.658182 
L 128.465322 19.413906 
" clip-path="url(#p2be52161f1)" style="fill: none; stroke-dasharray: 2.22,0.96; stroke-dashoffset: 0; stroke: #b0b0b0; stroke-opacity: 0.3; stroke-width: 0.6"/>
     </g>
     <g id="line2d_6">
      <g>
       <use xlink:href="#mf79667b9f4" x="128.465322" y="180.658182" style="stroke: #000000; stroke-width: 0.8"/>
      </g>
     </g>
     <g id="text_3">
      <!-- 0.0 -->
      <g transform="translate(121.043954 196.184305) scale(0.105 -0.105)">
       <use xlink:href="#MicrosoftYaHei-16"/>
       <use xlink:href="#MicrosoftYaHei-14" transform="translate(58.640625 0)"/>
       <use xlink:href="#MicrosoftYaHei-16" transform="translate(82.71875 0)"/>
      </g>
     </g>
    </g>
    <g id="xtick_4">
     <g id="line2d_7">
      <path d="M 165.853594 180.658182 
L 165.853594 19.413906 
" clip-path="url(#p2be52161f1)" style="fill: none; stroke-dasharray: 2.22,0.96; stroke-dashoffset: 0; stroke: #b0b0b0; stroke-opacity: 0.3; stroke-width: 0.6"/>
     </g>
     <g id="line2d_8">
      <g>
       <use xlink:href="#mf79667b9f4" x="165.853594" y="180.658182" style="stroke: #000000; stroke-width: 0.8"/>
      </g>
     </g>
     <g id="text_4">
      <!-- 0.5 -->
      <g transform="translate(158.432226 196.184305) scale(0.105 -0.105)">
       <use xlink:href="#MicrosoftYaHei-16"/>
       <use xlink:href="#MicrosoftYaHei-14" transform="translate(58.640625 0)"/>
       <use xlink:href="#MicrosoftYaHei-1b" transform="translate(82.71875 0)"/>
      </g>
     </g>
    </g>
    <g id="xtick_5">
     <g id="line2d_9">
      <path d="M 203.241866 180.658182 
L 203.241866 19.413906 
" clip-path="url(#p2be52161f1)" style="fill: none; stroke-dasharray: 2.22,0.96; stroke-dashoffset: 0; stroke: #b0b0b0; stroke-opacity: 0.3; stroke-width: 0.6"/>
     </g>
     <g id="line2d_10">
      <g>
       <use xlink:href="#mf79667b9f4" x="203.241866" y="180.658182" style="stroke: #000000; stroke-width: 0.8"/>
      </g>
     </g>
     <g id="text_5">
      <!-- 1.0 -->
      <g transform="translate(195.820498 196.184305) scale(0.105 -0.105)">
       <use xlink:href="#MicrosoftYaHei-17"/>
       <use xlink:href="#MicrosoftYaHei-14" transform="translate(58.640625 0)"/>
       <use xlink:href="#MicrosoftYaHei-16" transform="translate(82.71875 0)"/>
      </g>
     </g>
    </g>
    <g id="text_6">
     <!-- 折射率相对变化（%） -->
     <g transform="translate(76.544462 211.658631) scale(0.105 -0.105)">
      <defs>
       <path id="MicrosoftYaHei-711" d="M 2631 4816 
Q 4256 4822 5975 5078 
L 6144 4591 
Q 4281 4397 3119 4372 
L 3119 2916 
L 6300 2916 
L 6300 2453 
L 5163 2453 
L 5163 -822 
L 4663 -822 
L 4663 2453 
L 3119 2453 
Q 3103 203 2250 -859 
Q 2081 -672 1856 -472 
Q 2631 441 2631 2447 
L 2631 4816 
z
M 75 1953 
Q 513 2072 1013 2216 
L 1013 3591 
L 181 3591 
L 181 4022 
L 1013 4022 
L 1013 5259 
L 1500 5259 
L 1500 4022 
L 2275 4022 
L 2275 3591 
L 1500 3591 
L 1500 2363 
Q 1834 2463 2194 2578 
Q 2200 2259 2206 2078 
Q 1922 1997 1500 1866 
L 1500 -22 
Q 1500 -703 938 -722 
Q 650 -734 263 -728 
Q 225 -466 181 -203 
Q 556 -241 756 -241 
Q 1013 -241 1013 66 
L 1013 1709 
Q 622 1584 144 1428 
L 75 1953 
z
" transform="scale(0.015625)"/>
       <path id="MicrosoftYaHei-630" d="M 50 -147 
Q 1116 394 1881 1278 
L 125 1278 
L 125 1684 
L 494 1684 
L 494 4584 
L 1231 4584 
Q 1400 5009 1500 5359 
L 2006 5228 
Q 1869 4894 1728 4584 
L 2856 4584 
L 2856 -59 
Q 2856 -772 2238 -772 
Q 1969 -772 1581 -759 
Q 1544 -503 1488 -278 
Q 1850 -309 2106 -309 
Q 2394 -309 2394 -3 
L 2394 1278 
Q 1572 178 356 -547 
Q 194 -303 50 -147 
z
M 3069 3934 
L 5088 3934 
L 5088 5278 
L 5563 5278 
L 5563 3934 
L 6325 3934 
L 6325 3466 
L 5563 3466 
L 5563 216 
Q 5563 -722 4663 -722 
Q 4381 -722 3744 -709 
Q 3713 -478 3644 -178 
Q 4269 -234 4594 -234 
Q 5088 -234 5088 291 
L 5088 3466 
L 3069 3466 
L 3069 3934 
z
M 2394 4178 
L 956 4178 
L 956 3609 
L 2394 3609 
L 2394 4178 
z
M 956 1684 
L 2394 1684 
L 2394 2253 
L 956 2253 
L 956 1684 
z
M 956 2647 
L 2394 2647 
L 2394 3216 
L 956 3216 
L 956 2647 
z
M 3250 2684 
L 3638 2891 
Q 4156 2072 4456 1472 
L 4013 1228 
Q 3694 1916 3250 2684 
z
" transform="scale(0.015625)"/>
       <path id="MicrosoftYaHei-8e4" d="M 2525 2009 
Q 2622 2016 3928 2081 
Q 3772 2300 3625 2491 
L 3963 2703 
Q 4413 2203 4794 1653 
L 4394 1403 
Q 4284 1569 4178 1725 
Q 2991 1659 2213 1597 
Q 2075 1584 1881 1541 
L 1725 1966 
Q 1913 2028 2006 2084 
Q 2534 2441 3050 2913 
Q 2597 2894 2275 2866 
Q 2144 2847 1988 2809 
L 1800 3191 
Q 1956 3247 2088 3366 
Q 2509 3722 2875 4228 
L 231 4228 
L 231 4666 
L 3031 4666 
Q 2878 4944 2744 5153 
L 3194 5372 
Q 3438 5000 3616 4666 
L 6175 4666 
L 6175 4228 
L 3053 4228 
L 3350 4072 
Q 2844 3553 2494 3247 
Q 2850 3256 3425 3269 
Q 3675 3519 3925 3797 
L 4356 3547 
Q 3363 2603 2525 2009 
z
M 144 991 
L 2994 991 
L 2994 1541 
L 3488 1541 
L 3488 991 
L 6275 991 
L 6275 553 
L 3488 553 
L 3488 -853 
L 2994 -853 
L 2994 553 
L 144 553 
L 144 991 
z
M 1719 2672 
L 1944 2303 
Q 1200 1866 425 1409 
L 163 1828 
Q 813 2134 1719 2672 
z
M 4856 2678 
Q 5750 2172 6250 1816 
L 5975 1409 
Q 5331 1909 4600 2341 
L 4856 2678 
z
M 5994 3591 
Q 5519 3178 4963 2809 
L 4644 3141 
Q 5244 3534 5638 3928 
L 5994 3591 
z
M 363 3634 
L 681 3941 
Q 1200 3528 1588 3159 
L 1238 2816 
Q 875 3197 363 3634 
z
" transform="scale(0.015625)"/>
       <path id="MicrosoftYaHei-92c" d="M 2738 4891 
L 6025 4891 
L 6025 -822 
L 5550 -822 
L 5550 -397 
L 3213 -397 
L 3213 -822 
L 2738 -822 
L 2738 4891 
z
M 94 1409 
Q 784 2372 1128 3622 
L 169 3622 
L 169 4041 
L 1138 4041 
L 1138 5284 
L 1594 5284 
L 1594 4041 
L 2506 4041 
L 2506 3622 
L 1594 3622 
L 1594 2534 
L 1844 2791 
Q 2275 2372 2638 1984 
L 2300 1653 
Q 1956 2059 1594 2444 
L 1594 -809 
L 1138 -809 
L 1138 2444 
Q 800 1516 319 866 
Q 225 1134 94 1409 
z
M 3213 28 
L 5550 28 
L 5550 1241 
L 3213 1241 
L 3213 28 
z
M 5550 4466 
L 3213 4466 
L 3213 3266 
L 5550 3266 
L 5550 4466 
z
M 3213 1653 
L 5550 1653 
L 5550 2853 
L 3213 2853 
L 3213 1653 
z
" transform="scale(0.015625)"/>
       <path id="MicrosoftYaHei-62b" d="M 694 3691 
Q 1234 2909 1741 2166 
Q 2113 3081 2213 4147 
L 250 4147 
L 250 4622 
L 2725 4622 
L 2725 4166 
Q 2553 2809 2059 1700 
Q 2569 953 3044 247 
L 2594 -53 
Q 2203 563 1803 1181 
Q 1247 163 388 -622 
Q 263 -428 81 -166 
Q 975 638 1500 1647 
Q 919 2538 319 3434 
L 694 3691 
z
M 2975 3941 
L 5056 3941 
L 5056 5278 
L 5563 5278 
L 5563 3941 
L 6325 3941 
L 6325 3466 
L 5563 3466 
L 5563 191 
Q 5563 -716 4669 -716 
Q 4388 -716 3744 -709 
Q 3713 -478 3644 -147 
Q 4263 -197 4588 -197 
Q 5056 -197 5056 278 
L 5056 3466 
L 2975 3466 
L 2975 3941 
z
M 3088 2684 
L 3494 2928 
Q 4000 2184 4388 1484 
L 3919 1216 
Q 3550 1922 3088 2684 
z
" transform="scale(0.015625)"/>
       <path id="MicrosoftYaHei-54a" d="M 838 1634 
L 838 2066 
L 5088 2066 
L 5088 1634 
Q 4494 853 3659 309 
Q 4675 -178 6313 -297 
Q 6088 -609 5950 -822 
Q 4275 -594 3178 34 
Q 2122 -509 425 -866 
Q 269 -622 106 -403 
Q 1741 -122 2728 328 
Q 2047 838 1553 1634 
L 838 1634 
z
M 231 4534 
L 3081 4534 
Q 2888 4884 2725 5141 
L 3175 5359 
Q 3481 4884 3600 4659 
L 3359 4534 
L 6200 4534 
L 6200 4091 
L 4181 4091 
L 4181 2353 
L 3700 2353 
L 3700 4091 
L 2694 4091 
L 2694 2341 
L 2213 2341 
L 2213 4091 
L 231 4091 
L 231 4534 
z
M 4475 1634 
L 2116 1634 
Q 2575 953 3197 572 
Q 3947 1016 4475 1634 
z
M 4556 3434 
L 4900 3728 
Q 5700 3009 6213 2459 
L 5825 2116 
Q 5219 2797 4556 3434 
z
M 1381 3741 
L 1756 3422 
Q 1119 2691 500 2097 
Q 344 2272 138 2447 
Q 794 3009 1381 3741 
z
" transform="scale(0.015625)"/>
       <path id="MicrosoftYaHei-517" d="M 1844 1453 
Q 2663 1834 3375 2331 
L 3375 5197 
L 3913 5197 
L 3913 2734 
Q 4869 3506 5613 4516 
L 6069 4184 
Q 5159 2975 3913 2069 
L 3913 303 
Q 3913 -122 4363 -122 
L 5156 -122 
Q 5581 -122 5650 284 
Q 5738 709 5763 1266 
Q 6025 1166 6313 1084 
Q 6263 559 6181 122 
Q 6063 -597 5281 -597 
L 4225 -597 
Q 3375 -597 3375 241 
L 3375 1703 
Q 2791 1328 2144 1016 
Q 2013 1222 1844 1453 
z
M 88 2222 
Q 1175 3666 1688 5291 
L 2231 5134 
Q 1934 4359 1588 3675 
L 1588 -797 
L 1063 -797 
L 1063 2734 
Q 716 2172 325 1678 
Q 219 1947 88 2222 
z
" transform="scale(0.015625)"/>
       <path id="MicrosoftYaHei-367" d="M 5288 -1100 
Q 4172 119 4172 1850 
Q 4172 3603 5288 4838 
L 5825 4838 
Q 4716 3572 4716 1856 
Q 4716 166 5819 -1100 
L 5288 -1100 
z
" transform="scale(0.015625)"/>
       <path id="MicrosoftYaHei-b" d="M 272 3619 
Q 272 4213 589 4563 
Q 906 4913 1444 4913 
Q 1959 4913 2248 4591 
Q 2538 4269 2538 3694 
Q 2538 3122 2219 2765 
Q 1900 2409 1372 2409 
Q 872 2409 572 2740 
Q 272 3072 272 3619 
z
M 753 3650 
Q 753 3247 928 3028 
Q 1103 2809 1406 2809 
Q 1719 2809 1889 3036 
Q 2059 3263 2059 3675 
Q 2059 4078 1892 4298 
Q 1725 4519 1422 4519 
Q 1113 4519 933 4289 
Q 753 4059 753 3650 
z
M 4647 4841 
L 1538 -31 
L 1016 -31 
L 4125 4841 
L 4647 4841 
z
M 3172 1134 
Q 3172 1728 3489 2083 
Q 3806 2438 4341 2438 
Q 4853 2438 5143 2114 
Q 5434 1791 5434 1203 
Q 5434 634 5112 279 
Q 4791 -75 4272 -75 
Q 3769 -75 3470 261 
Q 3172 597 3172 1134 
z
M 3650 1163 
Q 3650 769 3825 548 
Q 4000 328 4303 328 
Q 4616 328 4786 556 
Q 4956 784 4956 1194 
Q 4956 1600 4786 1815 
Q 4616 2031 4319 2031 
Q 4000 2031 3825 1801 
Q 3650 1572 3650 1163 
z
" transform="scale(0.015625)"/>
       <path id="MicrosoftYaHei-368" d="M 1113 -1100 
L 575 -1100 
Q 1684 163 1684 1888 
Q 1684 3581 581 4838 
L 1113 4838 
Q 2222 3628 2222 1888 
Q 2222 128 1113 -1100 
z
" transform="scale(0.015625)"/>
      </defs>
      <use xlink:href="#MicrosoftYaHei-711"/>
      <use xlink:href="#MicrosoftYaHei-630" transform="translate(100 0)"/>
      <use xlink:href="#MicrosoftYaHei-8e4" transform="translate(200 0)"/>
      <use xlink:href="#MicrosoftYaHei-92c" transform="translate(300 0)"/>
      <use xlink:href="#MicrosoftYaHei-62b" transform="translate(400 0)"/>
      <use xlink:href="#MicrosoftYaHei-54a" transform="translate(500 0)"/>
      <use xlink:href="#MicrosoftYaHei-517" transform="translate(600 0)"/>
      <use xlink:href="#MicrosoftYaHei-367" transform="translate(700 0)"/>
      <use xlink:href="#MicrosoftYaHei-b" transform="translate(800 0)"/>
      <use xlink:href="#MicrosoftYaHei-368" transform="translate(888.96875 0)"/>
     </g>
    </g>
   </g>
   <g id="matplotlib.axis_2">
    <g id="ytick_1">
     <g id="line2d_11">
      <path d="M 46.211123 173.561898 
L 210.71952 173.561898 
" clip-path="url(#p2be52161f1)" style="fill: none; stroke-dasharray: 2.22,0.96; stroke-dashoffset: 0; stroke: #b0b0b0; stroke-opacity: 0.3; stroke-width: 0.6"/>
     </g>
     <g id="line2d_12">
      <defs>
       <path id="m30b55b0b4e" d="M 0 0 
L -3.5 0 
" style="stroke: #000000; stroke-width: 0.8"/>
      </defs>
      <g>
       <use xlink:href="#m30b55b0b4e" x="46.211123" y="173.561898" style="stroke: #000000; stroke-width: 0.8"/>
      </g>
     </g>
     <g id="text_7">
      <!-- -1.0 -->
      <g transform="translate(19.825498 177.824959) scale(0.105 -0.105)">
       <use xlink:href="#MicrosoftYaHei-13"/>
       <use xlink:href="#MicrosoftYaHei-17" transform="translate(43.265625 0)"/>
       <use xlink:href="#MicrosoftYaHei-14" transform="translate(101.90625 0)"/>
       <use xlink:href="#MicrosoftYaHei-16" transform="translate(125.984375 0)"/>
      </g>
     </g>
    </g>
    <g id="ytick_2">
     <g id="line2d_13">
      <path d="M 46.211123 137.169201 
L 210.71952 137.169201 
" clip-path="url(#p2be52161f1)" style="fill: none; stroke-dasharray: 2.22,0.96; stroke-dashoffset: 0; stroke: #b0b0b0; stroke-opacity: 0.3; stroke-width: 0.6"/>
     </g>
     <g id="line2d_14">
      <g>
       <use xlink:href="#m30b55b0b4e" x="46.211123" y="137.169201" style="stroke: #000000; stroke-width: 0.8"/>
      </g>
     </g>
     <g id="text_8">
      <!-- -0.5 -->
      <g transform="translate(19.825498 141.432263) scale(0.105 -0.105)">
       <use xlink:href="#MicrosoftYaHei-13"/>
       <use xlink:href="#MicrosoftYaHei-16" transform="translate(43.265625 0)"/>
       <use xlink:href="#MicrosoftYaHei-14" transform="translate(101.90625 0)"/>
       <use xlink:href="#MicrosoftYaHei-1b" transform="translate(125.984375 0)"/>
      </g>
     </g>
    </g>
    <g id="ytick_3">
     <g id="line2d_15">
      <path d="M 46.211123 100.776505 
L 210.71952 100.776505 
" clip-path="url(#p2be52161f1)" style="fill: none; stroke-dasharray: 2.22,0.96; stroke-dashoffset: 0; stroke: #b0b0b0; stroke-opacity: 0.3; stroke-width: 0.6"/>
     </g>
     <g id="line2d_16">
      <g>
       <use xlink:href="#m30b55b0b4e" x="46.211123" y="100.776505" style="stroke: #000000; stroke-width: 0.8"/>
      </g>
     </g>
     <g id="text_9">
      <!-- 0.0 -->
      <g transform="translate(24.368389 105.039566) scale(0.105 -0.105)">
       <use xlink:href="#MicrosoftYaHei-16"/>
       <use xlink:href="#MicrosoftYaHei-14" transform="translate(58.640625 0)"/>
       <use xlink:href="#MicrosoftYaHei-16" transform="translate(82.71875 0)"/>
      </g>
     </g>
    </g>
    <g id="ytick_4">
     <g id="line2d_17">
      <path d="M 46.211123 64.383808 
L 210.71952 64.383808 
" clip-path="url(#p2be52161f1)" style="fill: none; stroke-dasharray: 2.22,0.96; stroke-dashoffset: 0; stroke: #b0b0b0; stroke-opacity: 0.3; stroke-width: 0.6"/>
     </g>
     <g id="line2d_18">
      <g>
       <use xlink:href="#m30b55b0b4e" x="46.211123" y="64.383808" style="stroke: #000000; stroke-width: 0.8"/>
      </g>
     </g>
     <g id="text_10">
      <!-- 0.5 -->
      <g transform="translate(24.368389 68.64687) scale(0.105 -0.105)">
       <use xlink:href="#MicrosoftYaHei-16"/>
       <use xlink:href="#MicrosoftYaHei-14" transform="translate(58.640625 0)"/>
       <use xlink:href="#MicrosoftYaHei-1b" transform="translate(82.71875 0)"/>
      </g>
     </g>
    </g>
    <g id="ytick_5">
     <g id="line2d_19">
      <path d="M 46.211123 27.991112 
L 210.71952 27.991112 
" clip-path="url(#p2be52161f1)" style="fill: none; stroke-dasharray: 2.22,0.96; stroke-dashoffset: 0; stroke: #b0b0b0; stroke-opacity: 0.3; stroke-width: 0.6"/>
     </g>
     <g id="line2d_20">
      <g>
       <use xlink:href="#m30b55b0b4e" x="46.211123" y="27.991112" style="stroke: #000000; stroke-width: 0.8"/>
      </g>
     </g>
     <g id="text_11">
      <!-- 1.0 -->
      <g transform="translate(24.368389 32.254173) scale(0.105 -0.105)">
       <use xlink:href="#MicrosoftYaHei-17"/>
       <use xlink:href="#MicrosoftYaHei-14" transform="translate(58.640625 0)"/>
       <use xlink:href="#MicrosoftYaHei-16" transform="translate(82.71875 0)"/>
      </g>
     </g>
    </g>
    <g id="text_12">
     <!-- 厚度相对变化（%） -->
     <g transform="translate(13.164609 146.706904) rotate(-90) scale(0.105 -0.105)">
      <defs>
       <path id="MicrosoftYaHei-53c" d="M 1856 4097 
L 5700 4097 
L 5700 2072 
L 5250 2072 
L 5250 2228 
L 2306 2228 
L 2306 2072 
L 1856 2072 
L 1856 4097 
z
M 1319 691 
L 3744 691 
L 3744 947 
L 4913 1391 
L 1850 1391 
L 1850 1778 
L 5725 1778 
L 5725 1347 
L 4206 766 
L 4206 691 
L 6231 691 
L 6231 291 
L 4206 291 
L 4206 -153 
Q 4206 -797 3494 -803 
Q 3219 -803 2656 -797 
Q 2625 -547 2588 -328 
Q 3000 -366 3413 -366 
Q 3744 -366 3744 -72 
L 3744 291 
L 1319 291 
L 1319 691 
z
M 1163 2853 
Q 1163 1591 1031 778 
Q 888 -97 450 -791 
Q 288 -584 94 -422 
Q 438 159 563 821 
Q 688 1484 688 2734 
L 688 4934 
L 6225 4934 
L 6225 4522 
L 1163 4522 
L 1163 2853 
z
M 2306 2591 
L 5250 2591 
L 5250 2991 
L 2306 2991 
L 2306 2591 
z
M 5250 3734 
L 2306 3734 
L 2306 3341 
L 5250 3341 
L 5250 3734 
z
" transform="scale(0.015625)"/>
       <path id="MicrosoftYaHei-686" d="M 1550 1216 
L 1550 1628 
L 5469 1628 
L 5469 1222 
Q 4903 613 4147 163 
Q 5050 -200 6263 -309 
L 6019 -797 
Q 4625 -603 3644 -109 
Q 2600 -619 1250 -866 
Q 1150 -666 994 -416 
Q 2231 -222 3166 166 
Q 2497 600 2066 1216 
L 1550 1216 
z
M 1363 3541 
L 2294 3541 
L 2294 4066 
L 2769 4066 
L 2769 3541 
L 4538 3541 
L 4538 4072 
L 5013 4072 
L 5013 3541 
L 6150 3541 
L 6150 3128 
L 5013 3128 
L 5013 1928 
L 4538 1928 
L 4538 2147 
L 2769 2147 
L 2769 1922 
L 2294 1922 
L 2294 3128 
L 1363 3128 
L 1363 3541 
z
M 3025 5172 
L 3481 5391 
Q 3694 5056 3909 4634 
L 6213 4634 
L 6213 4197 
L 1225 4197 
L 1225 2316 
Q 1225 178 394 -872 
Q 238 -666 38 -447 
Q 725 397 738 2347 
L 738 4634 
L 3331 4634 
Q 3188 4909 3025 5172 
z
M 2769 2547 
L 4538 2547 
L 4538 3128 
L 2769 3128 
L 2769 2547 
z
M 4819 1216 
L 2588 1216 
Q 3031 728 3656 391 
Q 4334 741 4819 1216 
z
" transform="scale(0.015625)"/>
      </defs>
      <use xlink:href="#MicrosoftYaHei-53c"/>
      <use xlink:href="#MicrosoftYaHei-686" transform="translate(100 0)"/>
      <use xlink:href="#MicrosoftYaHei-92c" transform="translate(200 0)"/>
      <use xlink:href="#MicrosoftYaHei-62b" transform="translate(300 0)"/>
      <use xlink:href="#MicrosoftYaHei-54a" transform="translate(400 0)"/>
      <use xlink:href="#MicrosoftYaHei-517" transform="translate(500 0)"/>
      <use xlink:href="#MicrosoftYaHei-367" transform="translate(600 0)"/>
      <use xlink:href="#MicrosoftYaHei-b" transform="translate(700 0)"/>
      <use xlink:href="#MicrosoftYaHei-368" transform="translate(788.96875 0)"/>
     </g>
    </g>
   </g>
   <g id="line2d_21">
    <path d="M 53.688777 26.743192 
L 128.465322 100.776505 
L 203.241866 173.328897 
" clip-path="url(#p2be52161f1)" style="fill: none; stroke: #2e5c8a; stroke-width: 1.8; stroke-linecap: square"/>
    <defs>
     <path id="mc67b4dea19" d="M 0 3 
C 0.795609 3 1.55874 2.683901 2.12132 2.12132 
C 2.683901 1.55874 3 0.795609 3 0 
C 3 -0.795609 2.683901 -1.55874 2.12132 -2.12132 
C 1.55874 -2.683901 0.795609 -3 0 -3 
C -0.795609 -3 -1.55874 -2.683901 -2.12132 -2.12132 
C -2.683901 -1.55874 -3 -0.795609 -3 0 
C -3 0.795609 -2.683901 1.55874 -2.12132 2.12132 
C -1.55874 2.683901 -0.795609 3 0 3 
z
" style="stroke: #2e5c8a"/>
    </defs>
    <g clip-path="url(#p2be52161f1)">
     <use xlink:href="#mc67b4dea19" x="53.688777" y="26.743192" style="fill: #2e5c8a; stroke: #2e5c8a"/>
     <use xlink:href="#mc67b4dea19" x="128.465322" y="100.776505" style="fill: #2e5c8a; stroke: #2e5c8a"/>
     <use xlink:href="#mc67b4dea19" x="203.241866" y="173.328897" style="fill: #2e5c8a; stroke: #2e5c8a"/>
    </g>
   </g>
   <g id="line2d_22">
    <path d="M 46.211123 100.776505 
L 210.71952 100.776505 
" clip-path="url(#p2be52161f1)" style="fill: none; stroke: #aaaaaa; stroke-width: 0.6; stroke-linecap: square"/>
   </g>
   <g id="patch_3">
    <path d="M 46.211123 180.658182 
L 46.211123 19.413906 
" style="fill: none; stroke: #000000; stroke-width: 0.7; stroke-linejoin: miter; stroke-linecap: square"/>
   </g>
   <g id="patch_4">
    <path d="M 46.211123 180.658182 
L 210.71952 180.658182 
" style="fill: none; stroke: #000000; stroke-width: 0.7; stroke-linejoin: miter; stroke-linecap: square"/>
   </g>
   <g id="text_13">
    <!-- （a）碳化硅 -->
    <g transform="translate(97.924853 13.413906) scale(0.11 -0.11)">
     <defs>
      <path id="MicrosoftYaHei-47" d="M 628 3216 
Q 1144 3538 1819 3538 
Q 3069 3538 3069 2225 
L 3069 0 
L 2463 0 
L 2463 534 
L 2447 534 
Q 2088 -81 1388 -81 
Q 884 -81 587 191 
Q 291 463 291 925 
Q 291 1894 1438 2053 
L 2463 2197 
Q 2463 3044 1763 3044 
Q 1141 3044 628 2625 
L 628 3216 
z
M 1653 1625 
Q 1228 1569 1067 1412 
Q 906 1256 906 975 
Q 906 728 1081 572 
Q 1256 416 1544 416 
Q 1944 416 2203 697 
Q 2463 978 2463 1403 
L 2463 1734 
L 1653 1625 
z
" transform="scale(0.015625)"/>
      <path id="MicrosoftYaHei-4b1b" d="M 50 1697 
Q 694 2747 1025 4309 
L 275 4309 
L 275 4734 
L 2263 4734 
L 2263 4309 
L 1469 4309 
Q 1319 3584 1100 2953 
L 2106 2953 
L 2106 -353 
L 1694 -353 
L 1694 34 
L 1106 34 
L 1106 -428 
L 694 -428 
L 694 1953 
Q 538 1641 363 1353 
Q 206 1534 50 1697 
z
M 2300 3097 
L 3106 3097 
Q 3131 3334 3156 3559 
L 3588 3559 
Q 3563 3322 3538 3097 
L 6200 3097 
L 6200 2672 
L 3475 2672 
Q 3413 2309 3319 1978 
L 3419 2047 
Q 3731 1622 4006 1172 
L 3644 928 
Q 3438 1297 3206 1647 
Q 2906 791 2344 122 
Q 2238 378 2125 553 
Q 2825 1441 3038 2672 
L 2300 2672 
L 2300 3097 
z
M 4275 2472 
L 4694 2472 
Q 4688 2059 4644 1553 
Q 4838 22 6325 -397 
Q 6144 -634 6031 -853 
Q 4794 -328 4450 822 
Q 4138 -253 2694 -903 
Q 2544 -666 2381 -459 
Q 3831 28 4131 1078 
Q 4256 1453 4275 2472 
z
M 5563 4934 
L 5975 4934 
L 5975 3553 
L 5563 3553 
L 5563 3753 
L 2500 3753 
L 2500 4934 
L 2913 4934 
L 2913 4166 
L 4025 4166 
L 4025 5253 
L 4450 5253 
L 4450 4166 
L 5563 4166 
L 5563 4934 
z
M 1694 2541 
L 1106 2541 
L 1106 447 
L 1694 447 
L 1694 2541 
z
M 4931 1253 
Q 5338 1641 5675 2072 
L 6044 1772 
Q 5644 1334 5213 953 
L 4931 1253 
z
" transform="scale(0.015625)"/>
      <path id="MicrosoftYaHei-4ab4" d="M 19 1703 
Q 731 2897 1044 4341 
L 225 4341 
L 225 4753 
L 2444 4753 
L 2444 4341 
L 1506 4341 
Q 1350 3616 1113 2978 
L 2213 2978 
L 2213 66 
L 1106 66 
L 1106 -447 
L 681 -447 
L 681 1966 
Q 519 1647 338 1359 
Q 194 1528 19 1703 
z
M 2438 -59 
L 4100 -59 
L 4100 1109 
L 2725 1109 
L 2725 1534 
L 4100 1534 
L 4100 2291 
L 4569 2291 
L 4569 1534 
L 5963 1534 
L 5963 1109 
L 4569 1109 
L 4569 -59 
L 6313 -59 
L 6313 -484 
L 2438 -484 
L 2438 -59 
z
M 2488 2884 
L 4100 2884 
L 4100 3934 
L 2738 3934 
L 2738 4359 
L 4100 4359 
L 4100 5259 
L 4569 5259 
L 4569 4359 
L 5963 4359 
L 5963 3934 
L 4569 3934 
L 4569 2884 
L 6263 2884 
L 6263 2459 
L 2488 2459 
L 2488 2884 
z
M 1788 2566 
L 1106 2566 
L 1106 478 
L 1788 478 
L 1788 2566 
z
" transform="scale(0.015625)"/>
     </defs>
     <use xlink:href="#MicrosoftYaHei-367"/>
     <use xlink:href="#MicrosoftYaHei-47" transform="translate(100 0)"/>
     <use xlink:href="#MicrosoftYaHei-368" transform="translate(155.28125 0)"/>
     <use xlink:href="#MicrosoftYaHei-4b1b" transform="translate(255.28125 0)"/>
     <use xlink:href="#MicrosoftYaHei-517" transform="translate(355.28125 0)"/>
     <use xlink:href="#MicrosoftYaHei-4ab4" transform="translate(455.28125 0)"/>
    </g>
   </g>
  </g>
  <g id="axes_2">
   <g id="patch_5">
    <path d="M 258.611123 180.658182 
L 423.11952 180.658182 
L 423.11952 19.413906 
L 258.611123 19.413906 
z
" style="fill: #ffffff"/>
   </g>
   <g id="matplotlib.axis_3">
    <g id="xtick_6">
     <g id="line2d_23">
      <path d="M 266.088777 180.658182 
L 266.088777 19.413906 
" clip-path="url(#pe7ed0ce837)" style="fill: none; stroke-dasharray: 2.22,0.96; stroke-dashoffset: 0; stroke: #b0b0b0; stroke-opacity: 0.3; stroke-width: 0.6"/>
     </g>
     <g id="line2d_24">
      <g>
       <use xlink:href="#mf79667b9f4" x="266.088777" y="180.658182" style="stroke: #000000; stroke-width: 0.8"/>
      </g>
     </g>
     <g id="text_14">
      <!-- -1.0 -->
      <g transform="translate(256.395965 196.184305) scale(0.105 -0.105)">
       <use xlink:href="#MicrosoftYaHei-13"/>
       <use xlink:href="#MicrosoftYaHei-17" transform="translate(43.265625 0)"/>
       <use xlink:href="#MicrosoftYaHei-14" transform="translate(101.90625 0)"/>
       <use xlink:href="#MicrosoftYaHei-16" transform="translate(125.984375 0)"/>
      </g>
     </g>
    </g>
    <g id="xtick_7">
     <g id="line2d_25">
      <path d="M 303.477049 180.658182 
L 303.477049 19.413906 
" clip-path="url(#pe7ed0ce837)" style="fill: none; stroke-dasharray: 2.22,0.96; stroke-dashoffset: 0; stroke: #b0b0b0; stroke-opacity: 0.3; stroke-width: 0.6"/>
     </g>
     <g id="line2d_26">
      <g>
       <use xlink:href="#mf79667b9f4" x="303.477049" y="180.658182" style="stroke: #000000; stroke-width: 0.8"/>
      </g>
     </g>
     <g id="text_15">
      <!-- -0.5 -->
      <g transform="translate(293.784237 196.184305) scale(0.105 -0.105)">
       <use xlink:href="#MicrosoftYaHei-13"/>
       <use xlink:href="#MicrosoftYaHei-16" transform="translate(43.265625 0)"/>
       <use xlink:href="#MicrosoftYaHei-14" transform="translate(101.90625 0)"/>
       <use xlink:href="#MicrosoftYaHei-1b" transform="translate(125.984375 0)"/>
      </g>
     </g>
    </g>
    <g id="xtick_8">
     <g id="line2d_27">
      <path d="M 340.865322 180.658182 
L 340.865322 19.413906 
" clip-path="url(#pe7ed0ce837)" style="fill: none; stroke-dasharray: 2.22,0.96; stroke-dashoffset: 0; stroke: #b0b0b0; stroke-opacity: 0.3; stroke-width: 0.6"/>
     </g>
     <g id="line2d_28">
      <g>
       <use xlink:href="#mf79667b9f4" x="340.865322" y="180.658182" style="stroke: #000000; stroke-width: 0.8"/>
      </g>
     </g>
     <g id="text_16">
      <!-- 0.0 -->
      <g transform="translate(333.443954 196.184305) scale(0.105 -0.105)">
       <use xlink:href="#MicrosoftYaHei-16"/>
       <use xlink:href="#MicrosoftYaHei-14" transform="translate(58.640625 0)"/>
       <use xlink:href="#MicrosoftYaHei-16" transform="translate(82.71875 0)"/>
      </g>
     </g>
    </g>
    <g id="xtick_9">
     <g id="line2d_29">
      <path d="M 378.253594 180.658182 
L 378.253594 19.413906 
" clip-path="url(#pe7ed0ce837)" style="fill: none; stroke-dasharray: 2.22,0.96; stroke-dashoffset: 0; stroke: #b0b0b0; stroke-opacity: 0.3; stroke-width: 0.6"/>
     </g>
     <g id="line2d_30">
      <g>
       <use xlink:href="#mf79667b9f4" x="378.253594" y="180.658182" style="stroke: #000000; stroke-width: 0.8"/>
      </g>
     </g>
     <g id="text_17">
      <!-- 0.5 -->
      <g transform="translate(370.832226 196.184305) scale(0.105 -0.105)">
       <use xlink:href="#MicrosoftYaHei-16"/>
       <use xlink:href="#MicrosoftYaHei-14" transform="translate(58.640625 0)"/>
       <use xlink:href="#MicrosoftYaHei-1b" transform="translate(82.71875 0)"/>
      </g>
     </g>
    </g>
    <g id="xtick_10">
     <g id="line2d_31">
      <path d="M 415.641866 180.658182 
L 415.641866 19.413906 
" clip-path="url(#pe7ed0ce837)" style="fill: none; stroke-dasharray: 2.22,0.96; stroke-dashoffset: 0; stroke: #b0b0b0; stroke-opacity: 0.3; stroke-width: 0.6"/>
     </g>
     <g id="line2d_32">
      <g>
       <use xlink:href="#mf79667b9f4" x="415.641866" y="180.658182" style="stroke: #000000; stroke-width: 0.8"/>
      </g>
     </g>
     <g id="text_18">
      <!-- 1.0 -->
      <g transform="translate(408.220498 196.184305) scale(0.105 -0.105)">
       <use xlink:href="#MicrosoftYaHei-17"/>
       <use xlink:href="#MicrosoftYaHei-14" transform="translate(58.640625 0)"/>
       <use xlink:href="#MicrosoftYaHei-16" transform="translate(82.71875 0)"/>
      </g>
     </g>
    </g>
    <g id="text_19">
     <!-- 折射率相对变化（%） -->
     <g transform="translate(288.944462 211.658631) scale(0.105 -0.105)">
      <use xlink:href="#MicrosoftYaHei-711"/>
      <use xlink:href="#MicrosoftYaHei-630" transform="translate(100 0)"/>
      <use xlink:href="#MicrosoftYaHei-8e4" transform="translate(200 0)"/>
      <use xlink:href="#MicrosoftYaHei-92c" transform="translate(300 0)"/>
      <use xlink:href="#MicrosoftYaHei-62b" transform="translate(400 0)"/>
      <use xlink:href="#MicrosoftYaHei-54a" transform="translate(500 0)"/>
      <use xlink:href="#MicrosoftYaHei-517" transform="translate(600 0)"/>
      <use xlink:href="#MicrosoftYaHei-367" transform="translate(700 0)"/>
      <use xlink:href="#MicrosoftYaHei-b" transform="translate(800 0)"/>
      <use xlink:href="#MicrosoftYaHei-368" transform="translate(888.96875 0)"/>
     </g>
    </g>
   </g>
   <g id="matplotlib.axis_4">
    <g id="ytick_6">
     <g id="line2d_33">
      <path d="M 258.611123 172.468509 
L 423.11952 172.468509 
" clip-path="url(#pe7ed0ce837)" style="fill: none; stroke-dasharray: 2.22,0.96; stroke-dashoffset: 0; stroke: #b0b0b0; stroke-opacity: 0.3; stroke-width: 0.6"/>
     </g>
     <g id="line2d_34">
      <g>
       <use xlink:href="#m30b55b0b4e" x="258.611123" y="172.468509" style="stroke: #000000; stroke-width: 0.8"/>
      </g>
     </g>
     <g id="text_20">
      <!-- -1.0 -->
      <g transform="translate(232.225498 176.731571) scale(0.105 -0.105)">
       <use xlink:href="#MicrosoftYaHei-13"/>
       <use xlink:href="#MicrosoftYaHei-17" transform="translate(43.265625 0)"/>
       <use xlink:href="#MicrosoftYaHei-14" transform="translate(101.90625 0)"/>
       <use xlink:href="#MicrosoftYaHei-16" transform="translate(125.984375 0)"/>
      </g>
     </g>
    </g>
    <g id="ytick_7">
     <g id="line2d_35">
      <path d="M 258.611123 136.630274 
L 423.11952 136.630274 
" clip-path="url(#pe7ed0ce837)" style="fill: none; stroke-dasharray: 2.22,0.96; stroke-dashoffset: 0; stroke: #b0b0b0; stroke-opacity: 0.3; stroke-width: 0.6"/>
     </g>
     <g id="line2d_36">
      <g>
       <use xlink:href="#m30b55b0b4e" x="258.611123" y="136.630274" style="stroke: #000000; stroke-width: 0.8"/>
      </g>
     </g>
     <g id="text_21">
      <!-- -0.5 -->
      <g transform="translate(232.225498 140.893336) scale(0.105 -0.105)">
       <use xlink:href="#MicrosoftYaHei-13"/>
       <use xlink:href="#MicrosoftYaHei-16" transform="translate(43.265625 0)"/>
       <use xlink:href="#MicrosoftYaHei-14" transform="translate(101.90625 0)"/>
       <use xlink:href="#MicrosoftYaHei-1b" transform="translate(125.984375 0)"/>
      </g>
     </g>
    </g>
    <g id="ytick_8">
     <g id="line2d_37">
      <path d="M 258.611123 100.792039 
L 423.11952 100.792039 
" clip-path="url(#pe7ed0ce837)" style="fill: none; stroke-dasharray: 2.22,0.96; stroke-dashoffset: 0; stroke: #b0b0b0; stroke-opacity: 0.3; stroke-width: 0.6"/>
     </g>
     <g id="line2d_38">
      <g>
       <use xlink:href="#m30b55b0b4e" x="258.611123" y="100.792039" style="stroke: #000000; stroke-width: 0.8"/>
      </g>
     </g>
     <g id="text_22">
      <!-- 0.0 -->
      <g transform="translate(236.768389 105.055101) scale(0.105 -0.105)">
       <use xlink:href="#MicrosoftYaHei-16"/>
       <use xlink:href="#MicrosoftYaHei-14" transform="translate(58.640625 0)"/>
       <use xlink:href="#MicrosoftYaHei-16" transform="translate(82.71875 0)"/>
      </g>
     </g>
    </g>
    <g id="ytick_9">
     <g id="line2d_39">
      <path d="M 258.611123 64.953805 
L 423.11952 64.953805 
" clip-path="url(#pe7ed0ce837)" style="fill: none; stroke-dasharray: 2.22,0.96; stroke-dashoffset: 0; stroke: #b0b0b0; stroke-opacity: 0.3; stroke-width: 0.6"/>
     </g>
     <g id="line2d_40">
      <g>
       <use xlink:href="#m30b55b0b4e" x="258.611123" y="64.953805" style="stroke: #000000; stroke-width: 0.8"/>
      </g>
     </g>
     <g id="text_23">
      <!-- 0.5 -->
      <g transform="translate(236.768389 69.216866) scale(0.105 -0.105)">
       <use xlink:href="#MicrosoftYaHei-16"/>
       <use xlink:href="#MicrosoftYaHei-14" transform="translate(58.640625 0)"/>
       <use xlink:href="#MicrosoftYaHei-1b" transform="translate(82.71875 0)"/>
      </g>
     </g>
    </g>
    <g id="ytick_10">
     <g id="line2d_41">
      <path d="M 258.611123 29.11557 
L 423.11952 29.11557 
" clip-path="url(#pe7ed0ce837)" style="fill: none; stroke-dasharray: 2.22,0.96; stroke-dashoffset: 0; stroke: #b0b0b0; stroke-opacity: 0.3; stroke-width: 0.6"/>
     </g>
     <g id="line2d_42">
      <g>
       <use xlink:href="#m30b55b0b4e" x="258.611123" y="29.11557" style="stroke: #000000; stroke-width: 0.8"/>
      </g>
     </g>
     <g id="text_24">
      <!-- 1.0 -->
      <g transform="translate(236.768389 33.378631) scale(0.105 -0.105)">
       <use xlink:href="#MicrosoftYaHei-17"/>
       <use xlink:href="#MicrosoftYaHei-14" transform="translate(58.640625 0)"/>
       <use xlink:href="#MicrosoftYaHei-16" transform="translate(82.71875 0)"/>
      </g>
     </g>
    </g>
    <g id="text_25">
     <!-- 厚度相对变化（%） -->
     <g transform="translate(225.564609 146.706904) rotate(-90) scale(0.105 -0.105)">
      <use xlink:href="#MicrosoftYaHei-53c"/>
      <use xlink:href="#MicrosoftYaHei-686" transform="translate(100 0)"/>
      <use xlink:href="#MicrosoftYaHei-92c" transform="translate(200 0)"/>
      <use xlink:href="#MicrosoftYaHei-62b" transform="translate(300 0)"/>
      <use xlink:href="#MicrosoftYaHei-54a" transform="translate(400 0)"/>
      <use xlink:href="#MicrosoftYaHei-517" transform="translate(500 0)"/>
      <use xlink:href="#MicrosoftYaHei-367" transform="translate(600 0)"/>
      <use xlink:href="#MicrosoftYaHei-b" transform="translate(700 0)"/>
      <use xlink:href="#MicrosoftYaHei-368" transform="translate(788.96875 0)"/>
     </g>
    </g>
   </g>
   <g id="line2d_43">
    <path d="M 266.088777 26.743192 
L 303.477049 63.959568 
L 340.865322 100.792041 
L 378.253594 137.246558 
L 415.641866 173.328897 
" clip-path="url(#pe7ed0ce837)" style="fill: none; stroke: #2e5c8a; stroke-width: 1.8; stroke-linecap: square"/>
    <g clip-path="url(#pe7ed0ce837)">
     <use xlink:href="#mc67b4dea19" x="266.088777" y="26.743192" style="fill: #2e5c8a; stroke: #2e5c8a"/>
     <use xlink:href="#mc67b4dea19" x="303.477049" y="63.959568" style="fill: #2e5c8a; stroke: #2e5c8a"/>
     <use xlink:href="#mc67b4dea19" x="340.865322" y="100.792041" style="fill: #2e5c8a; stroke: #2e5c8a"/>
     <use xlink:href="#mc67b4dea19" x="378.253594" y="137.246558" style="fill: #2e5c8a; stroke: #2e5c8a"/>
     <use xlink:href="#mc67b4dea19" x="415.641866" y="173.328897" style="fill: #2e5c8a; stroke: #2e5c8a"/>
    </g>
   </g>
   <g id="line2d_44">
    <path d="M 258.611123 100.792039 
L 423.11952 100.792039 
" clip-path="url(#pe7ed0ce837)" style="fill: none; stroke: #aaaaaa; stroke-width: 0.6; stroke-linecap: square"/>
   </g>
   <g id="patch_6">
    <path d="M 258.611123 180.658182 
L 258.611123 19.413906 
" style="fill: none; stroke: #000000; stroke-width: 0.7; stroke-linejoin: miter; stroke-linecap: square"/>
   </g>
   <g id="patch_7">
    <path d="M 258.611123 180.658182 
L 423.11952 180.658182 
" style="fill: none; stroke: #000000; stroke-width: 0.7; stroke-linejoin: miter; stroke-linecap: square"/>
   </g>
   <g id="text_26">
    <!-- （b）硅 -->
    <g transform="translate(320.852197 13.413906) scale(0.11 -0.11)">
     <defs>
      <path id="MicrosoftYaHei-48" d="M 1159 488 
L 1159 0 
L 547 0 
L 547 5116 
L 1159 5116 
L 1159 2859 
L 1172 2859 
Q 1578 3538 2359 3538 
Q 3009 3538 3392 3080 
Q 3775 2622 3775 1828 
Q 3775 953 3345 436 
Q 2916 -81 2200 -81 
Q 1525 -81 1172 488 
L 1159 488 
z
M 1156 1422 
Q 1156 1003 1428 714 
Q 1700 425 2109 425 
Q 2597 425 2872 800 
Q 3147 1175 3147 1838 
Q 3147 2384 2890 2707 
Q 2634 3031 2191 3031 
Q 1741 3031 1448 2709 
Q 1156 2388 1156 1891 
L 1156 1422 
z
" transform="scale(0.015625)"/>
     </defs>
     <use xlink:href="#MicrosoftYaHei-367"/>
     <use xlink:href="#MicrosoftYaHei-48" transform="translate(100 0)"/>
     <use xlink:href="#MicrosoftYaHei-368" transform="translate(163.875 0)"/>
     <use xlink:href="#MicrosoftYaHei-4ab4" transform="translate(263.875 0)"/>
    </g>
   </g>
  </g>
 </g>
 <defs>
  <clipPath id="p2be52161f1">
   <rect x="46.211123" y="19.413906" width="164.508397" height="161.244276"/>
  </clipPath>
  <clipPath id="pe7ed0ce837">
   <rect x="258.611123" y="19.413906" width="164.508397" height="161.244276"/>
  </clipPath>
 </defs>
</svg>
